<?xml version="1.0" encoding="UTF-8"?>
<svg id="Layer_2" data-name="Layer 2" xmlns="http://www.w3.org/2000/svg" viewBox="0 0 1797.19 541.72">
  <defs>
    <style>
      .cls-1 {
        fill: #fff;
      }

      .cls-2 {
        fill: #f15a24;
      }
    </style>
  </defs>
  <g id="Layer_1-2" data-name="Layer 1">
    <g>
      <path class="cls-1" d="M101.29,149.14v121.02h203.45c24.27,0,44.71,19.73,44.71,44.71s-20.43,44.71-44.71,44.71H101.29v126.09c0,27.77-22.88,51.34-50.65,51.34S0,513.43,0,485.67V110.72c0-34.05,19.38-53.44,53.44-53.44h266.5c24.97,0,45.93,20.43,45.93,45.93s-20.96,45.93-45.93,45.93H101.29Z"/>
      <path class="cls-1" d="M397.13,59.2c0-33.01,25.5-59.2,59.38-59.2s59.2,26.2,59.2,59.2-26.37,59.38-59.2,59.38-59.38-25.5-59.38-59.38ZM505.75,222.49v265.45c0,27.24-21.83,49.07-48.72,49.07s-49.07-21.83-49.07-49.07V222.49c0-27.24,22-49.07,49.07-49.07s48.72,21.83,48.72,49.07Z"/>
      <path class="cls-1" d="M844.02,486.71c0,21.31-12.92,37.72-35.45,45.75-18.86,6.46-42.09,9.25-62.17,9.25-74.74,0-132.72-37.72-132.72-130.28v-149.84h-21.65c-23.05,0-41.74-18.69-41.74-41.74s18.69-41.74,41.74-41.74h21.65v-48.72c0-27.07,21.83-48.9,48.9-48.9s48.9,21.83,48.9,48.9v48.72h81.21c23.05,0,41.74,18.69,41.74,41.74s-18.69,41.74-41.74,41.74h-81.21v136.22c0,37.55,19.91,54.49,48.55,54.49,10.3,0,20.26-1.92,26.2-3.32,8.21-1.92,13.27-2.45,17.99-2.45,22.35,0,39.82,16.59,39.82,40.17Z"/>
      <path class="cls-2" d="M1378.41,294.79c0,142.15-113.51,246.94-252.87,246.94s-252.87-104.78-252.87-246.94,113.51-246.94,252.87-246.94,252.87,104.78,252.87,246.94ZM1271.36,294.79c0-91.16-63.92-153.86-145.82-153.86s-145.82,62.69-145.82,153.86,63.92,153.85,145.82,153.85,145.82-62.69,145.82-153.85Z"/>
      <path class="cls-2" d="M1797.19,396.42c0,104.43-95.7,145.3-201.18,145.3-54.31,0-107.23-10.65-139.54-24.1-23.58-9.95-34.58-25.15-34.58-44.71,0-33.36,28.47-50.29,62.87-40.69,30.91,9.61,70.9,23.58,114.91,23.58,52.22,0,92.73-14.67,92.73-50.99,0-92.03-259.34-44.88-259.34-214.8,0-99.37,96.05-142.15,192.45-142.15,49.6,0,92.73,10.48,119.28,21.65,28.64,12.05,37.72,26.02,37.72,46.8,0,33.53-32.48,50.99-64.62,39.64-32.31-11.88-64.62-22.18-99.19-22.18-53.79,0-83.3,20.08-83.3,49.95,0,84.87,261.78,35.63,261.78,212.71Z"/>
    </g>
  </g>
</svg>