<?xml version="1.0" encoding="UTF-8"?>
<svg id="Livello_2" data-name="Livello 2" xmlns="http://www.w3.org/2000/svg" viewBox="0 0 218.43 60.76">
  <defs>
    <style>
      .cls-1 {
        fill: #fff;
      }
    </style>
  </defs>
  <g id="Livello_1-2" data-name="Livello 1">
    <g>
      <g>
        <path class="cls-1" d="M193.82,29.25c-3.26,1.97-6.85,3.42-10.62,3.89-6.15.76-7.66,6.61-16.42,10.52-2.07.92-3.86,1.96-6.4,1.68-.91,1.65-2.23,3.18-2.27,5.03l-.1,5.04c-.02.95-.87,1.83-1.6,2.37s-1.88.6-2.46-.1c-1.29-1.57-1.31-3.48-1.66-5.37-.63-3.38.86-4.87,1.07-5.34.29-.64.21-1.83.43-2.71.46-1.83-1.17-3.35-2.51-4.53,2.67-2.14,5.76-2.33,8.87-2.37,12.24-.18,13.67-13.4,11.74-12.8-1.06.33-.43,6.28-5.18,9.22-.59.36-1.27.48-1.87.93-2.49,1.88-6.5.73-9.9,1.59-7.02,1.77-9,8.24-16.09,8.74-1.98.14-3.91-.42-4.94-1.99-1.72-2.64,2.64-4.12,5.29-6.08.91-.67,1.9-.8,2.81-1.27,1.19-.62,2.23-1.37,3.63-1.84s2.62-1.63,3.44-2.8c1.26-1.79,2.76-3.22,3.77-5.21-1.8-.64-4.02,3.64-5.76,5.39-1.37,1.39-3.12,2.16-4.91,2.7.21-.85-.25-1.16-.95-1.44-1.02-.41-1.73-1.59-2.85-1.82-1.6-.33-3.23-.05-4.9-.19-1.21-.1-2.6-1.07-3.79-.83-2.67.54-5.14,1.08-7.83,1.38-1.57.17-5.65,2.65-9.03.21-4.31-3.13,7.37-5.91,9.21-6.69,4.08-1.74,7.87-2.71,12.37-1.89,2.08.38,4.37-.8,6.39-1.09,2.54-.36,4.94-.57,7.27-1.64,2.17-.99,4.16-2.27,6.49-2.88.2-.05.39.56.53.54.16-.02.2-.62.32-.73.98-.87,2.38-.71,3.53-1.17,5.26-2.11,10.32-1.27,11.77-1.93,2.17-.99,4.31-2.23,6.84-2.51,8.1-.89,8.81-2.27,15.67-3.52l11.53-2.1c3.82-.7,11.94-4.99,13.67-4.99.1,11.37-5.41,8.46-12.5,17.67l-3.69,4.48c-1.5,1.82-3.29,3.37-5.31,4.59l-3.11,1.88ZM135.31,23.17c-1.37-.32-2.26-.3-3.17-.02,1.2.26,2.19.21,3.17.02Z"/>
        <path class="cls-1" d="M139.74,60.76h-.93c-1.75-.97-1.29-3.33-1.69-4.97-.57-2.37-.99-7.48.08-9.56,2.13.34,4.07-.19,5.94-1.01-.23,2.36-1.19,4.35-1.28,6.57-.12,3.02.99,7.86-2.12,8.97Z"/>
        <path class="cls-1" d="M143.24,59.88c-1.09-.37-.43-2.19-.41-2.94l.16-5.61c.06-2.13.78-4.3,1.57-6.3.5-1.24,2.06-1.76,3.03-2.61.75-.66,1.56-1.89,2.53-1.93,1.06-.04,1.92,1.26,2.18,1.98.36.96-.3,2.26-1.04,2.95-1.51,1.4-1.97,2.99-2.62,4.79-.75,2.06-1.51,3.88-1.6,6.2-.07,1.87-1.64,4.2-3.81,3.47Z"/>
        <path class="cls-1" d="M135.31,23.17c-.99.19-1.98.24-3.17-.02.91-.28,1.81-.3,3.17.02Z"/>
      </g>
      <g>
        <path class="cls-1" d="M28.99,4.6c1.34-1.06,2.76-2,4.3-2.74,1.44-.69,2.94-1.2,4.46-1.32,3.15-.76,6.17-.71,9.04.12.54-.15,1-.19,1.39-.12,1.4-.43,8.4,1.4,9.81,1.94,5.72,2.19,11.4,3.51,17.57,3.87,8.61.5,7.44,5.26,14.35,7.16,3.51.96,7.01,2.47,10.09,4.31,2.12,1.27,2.95,3.74,4.65,5.16s2.98,3.37,3.92,5.44,2.99,3.93,3.56,6.14c-.18,1.72-3.05,1.6-4.33,1.08-2.13-.87-3.17-2.42-4.39-4.23-1.35-2-3.29-3.52-4.98-5.08-.29-.91-.57-1.64-1.58-1.92-.72-.43-1.31-1.14-2.21-1.23-.09-.26-.41-.36-.95-.31-2.44,0-5.23-1.38-7.56-2.61-2.73.79-5.71,1.07-8.34-.16-.49-.46,1.84-2.35.26-2-.48.11-4.27,3.97-6.69,4.44-1.55-1.47-2.06-3.4-3.73-4.05-.14-.06-.51.39-.42.54,1.3,2.04,2.85,4.14,4.27,6.12,4.06,5.67,9.3,6.69,12.1,9.94,1.67,1.94,3.79,5.08,2.42,7.24-.4.62-1.41,1.67-2.43,1.46-4.47-.9-10.16-7.26-16.86-10.44-4.62-2.19-8.44-1.89-11.39-2.84-3.9-1.26-6.89-4.19-8.87-7.78-1.5-2.73-2.46-8.36-5.76-8.34-.42.49.31,1.17.72,1.39,1.19.67,1.32,2.15,1.9,3.23.55,1.03,1.44,1.97,1.26,3.32-.84.1-1.68.82-2.38.67-.88-.18-.85.37-1.38.66-7.34,4.03-10.07,9.81-16.48,15.05-4.15,3.39-8.78,5.72-13.27,8.54l-2.14,1.34-7.24,5.3c-.62.45-1.12.57-1.44.01.39-3.75.11-7.54-.22-11.35.39-5.07,8.14-13.86,11.07-17.3.44-3.23,2.16-5.72,4.61-9.19,1.21-1.72,2.8-3.15,4.45-4.45l8.87-7.03Z"/>
        <path class="cls-1" d="M96.25,34.41c-.15-.43,1.73,8.71,1.04,9.36-.2.19-.65.2-1.07.21-4.25.14-4.55-6.58-5.61-8.59-1.49-2.81-3.1-5.52-3.89-8.74-1.79-1.95-3.77-3.47-5.25-5.97,2.05.65,3.81,1.07,5.61,2.09,1.7-.32,3.56.12,4.65,1.77.59.89,1.69,1.61,2.03,2.6l2.49,7.26Z"/>
        <path class="cls-1" d="M92.57,43.68c-2.14,1.38-4.13-.22-4.83-2.25-.46-1.32-.4-2.97-1.24-4.12-1.55-2.12-2.22-4.49-3.35-6.78-.76-1.54-2.63-2.47-3.61-3.89-1.4-2.03-2.67-3.92-3.99-6.13,1.49.14,2.83.28,4.19.28,1.55,2.26,3.92,4.12,5.6,6.26,1.31,1.66,1.42,3.93,2.56,5.68,3.57,5.5,1.52,6.21,4.66,10.95Z"/>
        <path class="cls-1" d="M78.41,33.5c-3.65-2.19-6.98-4.4-9.32-7.81.3-.04,5.06-2.99,4.1-2.72.26-.07.88-.04,1.23.21,3.58,2.6,5.9,6.74,6.08,11.34-.9.49-1.34-.58-2.09-1.03Z"/>
        <path class="cls-1" d="M75.46,42.6c.61.45-.4,1.48-.89,1.64-.56.17-1.78.43-2.34,0-1.24-.96-1.22-2.86-.4-4.31l3.64,2.68Z"/>
        <path class="cls-1" d="M89.84,21.72c-.34-.03-.71-.07-.95-.31.86-.43,1.95-.47,2.87-.16-.76.43-1.61-.19-1.92.47Z"/>
        <path class="cls-1" d="M93.63,24.87c-.63-.59-.81-1.46-1.58-1.92.49,0,1.01.12,1.3.48.34.43.31.96.28,1.44Z"/>
      </g>
    </g>
  </g>
</svg>