<?xml version="1.0" encoding="UTF-8"?>
<svg id="Livello_2" data-name="Livello 2" xmlns="http://www.w3.org/2000/svg" viewBox="0 0 379.14 62.85">
  <g id="Livello_1-2" data-name="Livello 1">
    <g>
      <path fill="#fff" d="M38.52,62.85c-3.32,0-6.1-2.69-6.1-6.01v-21.64H12.21v26.75l-12.21.09V0h11.85v21.37l20.56,7.36V0h12.21v56.83c0,3.32-2.78,6.01-6.11,6.01Z"/>
      <path fill="#fff" d="M87.09,48.57l6.29,6.82c-2.78,2.69-8.35,6.55-16.16,6.55-12.75,0-23.16-10.42-23.16-23.16s10.42-23.16,23.16-23.16c14.19,0,25.32,12.75,22.8,27.38h-35.1c0,.81,2.78,9.61,12.3,9.61,5.48,0,8.8-2.96,9.88-4.04ZM64.82,33.49h24.6c0-1.71-4.13-8.71-12.21-8.71s-12.39,7-12.39,8.71Z"/>
      <path fill="#fff" d="M147.87,12.93c3.32,0,6.11,2.78,6.11,6.11v42.92h-12.21v-3.41s-4.67,3.41-12.03,3.41c-12.75,0-23.16-10.42-23.16-23.16s10.42-23.16,23.16-23.16c7.18,0,12.03,3.41,12.03,3.41,0-3.41,2.78-6.11,6.11-6.11ZM129.73,50.91c6.73,0,12.21-5.39,12.21-12.12s-5.48-12.21-12.21-12.21-12.21,5.48-12.21,12.21,5.48,12.12,12.21,12.12Z"/>
      <path fill="#fff" d="M176.42,61.95l-15.98-42.29,10.86-3.95,10.95,29.27,8.35-25.05c.54-1.71,2.42-4.31,5.83-4.31s6.11,2.78,6.11,6.11c0,.45-.09,1.17-.27,1.8l-13.74,38.43h-12.12Z"/>
      <path fill="#fff" d="M240.43,48.57l6.29,6.82c-2.78,2.69-8.35,6.55-16.16,6.55-12.75,0-23.16-10.42-23.16-23.16s10.41-23.16,23.16-23.16c14.19,0,25.32,12.75,22.81,27.38h-35.11c0,.81,2.78,9.61,12.3,9.61,5.48,0,8.8-2.96,9.88-4.04ZM218.17,33.49h24.6c0-1.71-4.13-8.71-12.21-8.71s-12.39,7-12.39,8.71Z"/>
      <path fill="#fff" d="M289.99,25.23l-15.62,7.72v23.88c0,3.32-2.78,6.01-6.1,6.01s-6.11-2.69-6.11-6.01V20.56l12.21-6.11v10.5s5.03-9.34,14.46-9.34c7.54,0,13.38,4.58,13.38,15.44v30.88h-12.21V25.23Z"/>
      <path fill="#fff" d="M327.97,6.64c0,3.68-2.42,14.1-15.53,17.33,2.6-1.97,7.09-7.9,7.09-9.79,0-2.78-4.76-1.71-4.76-7.54,0-3.59,2.87-6.64,6.64-6.64s6.55,3.05,6.55,6.64Z"/>
      <path fill="#fff" d="M363.52,34.39c6.64,1.71,15.62,3.5,15.62,13.92,0,11.04-8.98,14.54-19.39,14.54-11.49,0-17.96-6.28-19.57-8.62-.45-.63-.9-1.44-.9-2.78,0-2.69,2.15-4.85,4.85-4.85,2.06,0,3.32,1.26,3.68,1.62,2.6,2.6,6.46,5.39,11.94,5.39,5.75,0,7.99-1.71,7.99-4.67,0-3.59-7.45-4.67-13.92-6.11-4.94-1.08-12.66-4.49-12.66-13.74s9.34-14.1,18.58-14.1c8.62,0,14.9,3.77,17.78,6.01l-5.12,8.53c-3.59-3.14-8.17-4.85-12.66-4.85-3.23,0-6.29.81-6.29,4.31,0,3.23,7.99,4.85,10.06,5.39Z"/>
    </g>
  </g>
</svg>